<?xml version="1.0" standalone="no"?>
<!DOCTYPE svg PUBLIC "-//W3C//DTD SVG 20010904//EN"
 "http://www.w3.org/TR/2001/REC-SVG-20010904/DTD/svg10.dtd">
<svg version="1.0" xmlns="http://www.w3.org/2000/svg"
 width="880.000000pt" height="880.000000pt" viewBox="0 0 880.000000 880.000000"
 preserveAspectRatio="xMidYMid meet">

<g transform="translate(0.000000,880.000000) scale(0.100000,-0.100000)"
fill="#000000" stroke="none">
<path d="M0 4400 l0 -4400 4400 0 4400 0 0 4400 0 4400 -4400 0 -4400 0 0
-4400z m7714 3030 c175 -46 331 -155 450 -314 21 -27 67 -70 104 -96 151 -106
273 -243 342 -383 64 -131 75 -187 74 -377 0 -146 -3 -177 -27 -266 -66 -251
-257 -627 -387 -765 -98 -103 -158 -208 -295 -515 -100 -223 -161 -321 -264
-425 -140 -140 -296 -232 -706 -414 -432 -193 -602 -290 -731 -419 -112 -112
-138 -207 -139 -511 0 -241 -9 -224 249 -479 218 -216 318 -297 429 -350 130
-61 228 -83 667 -151 234 -36 432 -67 440 -69 8 -2 -532 -4 -1200 -4 l-1215 0
187 62 c103 33 189 64 192 67 5 5 -284 334 -515 587 -103 113 -159 252 -174
433 l-7 86 150 119 c83 65 149 120 148 121 -1 1 -63 -23 -137 -54 l-134 -56
-180 7 c-761 27 -1058 187 -916 494 l34 73 164 115 c89 63 163 117 163 119 0
2 -123 -53 -272 -122 l-273 -125 -140 6 c-270 11 -511 60 -1126 231 -487 135
-711 188 -791 186 -32 0 -116 -5 -186 -10 -604 -46 -1129 -33 -1397 35 -65 16
-195 73 -195 84 0 4 136 35 302 68 521 107 583 120 567 121 -170 11 -454 33
-457 35 -5 5 -46 -4 1267 282 1041 227 1139 250 1095 257 -100 16 -180 39
-227 65 -50 27 -107 83 -107 106 0 8 127 52 348 120 191 60 1040 324 1887 588
934 291 1568 483 1612 489 146 20 318 -24 448 -115 l68 -47 -22 33 c-37 55
-80 155 -96 220 -8 34 -23 74 -33 88 -41 56 -171 107 -359 141 -91 16 -516 69
-557 69 -38 0 77 194 169 284 64 62 180 125 280 151 95 25 262 30 401 11 l120
-16 125 44 c141 50 301 91 404 105 104 14 286 5 379 -19z"/>
<path d="M7323 7205 c-17 -7 -41 -23 -52 -34 -17 -17 -35 -21 -123 -23 l-103
-3 90 -31 c81 -28 92 -34 107 -66 36 -75 129 -111 221 -84 51 15 107 60 107
87 0 5 26 9 58 9 l57 1 -55 29 c-32 16 -62 41 -73 58 -35 62 -156 91 -234 57z
m65 -51 c-11 -23 -10 -29 11 -45 28 -23 60 -24 87 -4 28 21 34 18 34 -14 0
-17 -10 -42 -24 -58 -22 -25 -30 -28 -91 -28 -61 0 -69 3 -91 28 -41 48 -28
100 32 132 45 23 56 20 42 -11z"/>
<path d="M7569 6204 c109 -81 195 -194 247 -322 49 -122 67 -327 44 -511 -6
-46 -9 -86 -6 -88 9 -9 77 107 103 175 51 132 41 334 -22 470 -14 30 -25 58
-25 64 0 17 160 -76 238 -139 43 -34 97 -86 122 -117 24 -30 46 -53 49 -50 2
2 -19 51 -47 109 -145 290 -347 422 -691 449 l-73 6 61 -46z"/>
<path d="M5193 5777 c-358 -116 -650 -213 -649 -215 13 -13 1289 398 1315 423
10 10 -35 -4 -666 -208z"/>
<path d="M5562 5598 c-144 -50 -260 -93 -258 -95 7 -7 521 169 535 182 10 10
-24 0 -277 -87z"/>
<path d="M6230 5320 c-8 -5 -10 -10 -5 -10 6 0 17 5 25 10 8 5 11 10 5 10 -5
0 -17 -5 -25 -10z"/>
<path d="M5932 5213 c-144 -53 -261 -98 -259 -100 7 -7 520 177 536 193 11 11
-33 -4 -277 -93z"/>
<path d="M3211 4963 c-74 -147 35 -224 394 -279 l50 -7 -50 -8 c-27 -4 -415
-38 -862 -75 -446 -38 -810 -70 -809 -72 3 -2 1108 28 1615 44 l204 7 -7 -24
c-29 -93 -12 -163 45 -198 132 -81 547 -40 1144 110 114 29 124 30 206 20 317
-40 682 50 1392 344 103 43 186 79 184 81 -2 2 -118 -33 -258 -77 -613 -195
-918 -258 -1268 -263 -153 -2 -160 -3 -376 -58 -357 -91 -566 -127 -741 -128
-123 0 -192 18 -228 61 -32 38 -33 78 -3 142 l22 49 140 43 c77 24 201 68 275
98 140 56 236 103 190 92 -14 -3 -101 -18 -195 -34 -406 -70 -737 -65 -914 15
-72 32 -98 58 -115 115 l-13 44 -22 -42z"/>
<path d="M5732 3110 c-47 -328 -42 -428 28 -559 17 -31 125 -165 241 -298
l210 -243 157 0 157 0 -195 198 c-107 108 -264 267 -348 352 l-152 156 -33
309 -33 310 -32 -225z"/>
</g>
</svg>
