<?xml version="1.0" encoding="UTF-8"?>
<svg version="1.1" viewBox="0 0 880 880" xmlSpace="preserve" xmlns="http://www.w3.org/2000/svg" xmlnsCc="http://creativecommons.org/ns#" xmlnsDc="http://purl.org/dc/elements/1.1/" xmlnsRdf="http://www.w3.org/1999/02/22-rdf-syntax-ns#"><metadata><rdfRDF><ccWork rdfAbout=""><dcFormat>image/svg+xml</dcFormat><dcType rdfResource="http://purl.org/dc/dcmitype/StillImage"/><dcTitle/></ccWork></rdfRDF></metadata><g transform="matrix(1.3333 0 0 -1.3333 0 880)"><g fill="#231f20"><path d="m31.141-25.146h3.677c1.135 0 2.026 0.106 2.672 0.318s1.161 0.51 1.545 0.893c0.54 0.541 0.961 1.269 1.262 2.182 0.302 0.914 0.453 2.022 0.453 3.322 0 1.804-0.295 3.19-0.887 4.159-0.591 0.967-1.31 1.617-2.155 1.946-0.612 0.235-1.594 0.352-2.949 0.352h-3.618zm-2.282-2.031v17.235h5.932c1.338 0 2.36-0.082 3.065-0.247 0.986-0.228 1.828-0.639 2.525-1.235 0.908-0.767 1.587-1.749 2.037-2.944 0.451-1.195 0.676-2.562 0.676-4.098 0-1.308-0.153-2.469-0.458-3.479-0.305-1.011-0.697-1.848-1.175-2.51-0.477-0.663-1-1.184-1.568-1.564-0.567-0.38-1.252-0.668-2.055-0.864-0.802-0.196-1.724-0.294-2.766-0.294z"/><path d="m47.546-19.739h6.969c-0.094 1.052-0.36 1.842-0.799 2.368-0.674 0.817-1.548 1.225-2.621 1.225-0.971 0-1.788-0.326-2.45-0.978-0.662-0.651-1.028-1.523-1.099-2.615m6.946-3.407 2.187-0.281c-0.345-1.277-0.983-2.268-1.915-2.973-0.931-0.705-2.122-1.058-3.571-1.058-1.824 0-3.272 0.562-4.34 1.687-1.069 1.124-1.603 2.701-1.603 4.731 0 2.1 0.54 3.729 1.621 4.889 1.08 1.16 2.482 1.74 4.205 1.74 1.668 0 3.03-0.568 4.088-1.704 1.057-1.136 1.586-2.735 1.586-4.794 0-0.126-4e-3 -0.315-0.012-0.565h-9.317c0.079-1.373 0.467-2.425 1.165-3.155 0.698-0.729 1.569-1.095 2.612-1.095 0.776 0 1.439 0.205 1.988 0.616 0.549 0.41 0.984 1.064 1.306 1.962"/><path d="m58.489-23.442 2.094 0.328c0.118-0.842 0.445-1.489 0.983-1.937s1.289-0.673 2.254-0.673c0.973 0 1.695 0.199 2.166 0.595 0.471 0.397 0.706 0.861 0.706 1.396 0 0.479-0.207 0.855-0.62 1.13-0.289 0.189-1.01 0.428-2.163 0.719-1.554 0.392-2.631 0.731-3.231 1.016-0.6 0.286-1.055 0.681-1.365 1.187-0.31 0.505-0.464 1.063-0.464 1.674 0 0.557 0.127 1.071 0.382 1.545 0.254 0.475 0.602 0.868 1.04 1.182 0.329 0.242 0.778 0.448 1.347 0.616 0.568 0.169 1.177 0.253 1.828 0.253 0.979 0 1.84-0.141 2.58-0.423 0.741-0.282 1.288-0.664 1.641-1.145 0.352-0.482 0.595-1.125 0.729-1.932l-2.063-0.281c-0.094 0.642-0.367 1.144-0.818 1.505s-1.089 0.541-1.912 0.541c-0.974 0-1.668-0.161-2.084-0.483-0.416-0.321-0.623-0.698-0.623-1.13 0-0.275 0.086-0.523 0.259-0.742 0.172-0.228 0.443-0.417 0.811-0.566 0.212-0.079 0.836-0.259 1.872-0.541 1.498-0.401 2.543-0.728 3.133-0.982 0.59-0.255 1.053-0.625 1.389-1.11 0.336-0.487 0.504-1.089 0.504-1.81 0-0.705-0.206-1.369-0.617-1.992-0.412-0.622-1.006-1.104-1.783-1.445-0.776-0.341-1.654-0.511-2.634-0.511-1.623 0-2.861 0.338-3.711 1.013-0.852 0.674-1.395 1.675-1.63 3.003"/><path d="m71.378-14.692h2.109v-12.484h-2.109zm0 4.75h2.109v-2.438h-2.109z"/><path d="m78.078-20.712c0-1.639 0.325-2.834 0.974-3.586 0.65-0.753 1.464-1.129 2.442-1.129 0.97 0 1.784 0.374 2.442 1.123 0.657 0.748 0.985 1.922 0.985 3.522 0 1.528-0.338 2.68-1.015 3.457-0.677 0.775-1.492 1.164-2.448 1.164-0.938 0-1.737-0.383-2.394-1.147s-0.986-1.899-0.986-3.404m-1.75-7.496 2.062-0.313c0.086-0.632 0.325-1.093 0.716-1.382 0.524-0.391 1.24-0.586 2.147-0.586 0.978 0 1.733 0.196 2.265 0.588 0.531 0.392 0.892 0.941 1.079 1.647 0.11 0.432 0.16 1.337 0.153 2.718-0.924-1.094-2.075-1.641-3.453-1.641-1.715 0-3.043 0.619-3.982 1.858-0.94 1.238-1.409 2.722-1.409 4.455 0 1.191 0.216 2.29 0.646 3.297 0.431 1.006 1.056 1.785 1.874 2.333 0.819 0.548 1.78 0.823 2.885 0.823 1.472 0 2.687-0.594 3.642-1.781v1.5h1.953v-10.789c0-1.944-0.198-3.321-0.593-4.131-0.396-0.811-1.023-1.451-1.881-1.922-0.858-0.47-1.914-0.705-3.168-0.705-1.488 0-2.691 0.335-3.608 1.005s-1.36 1.678-1.328 3.026"/><path d="m90.104-27.177v12.485h1.89v-1.775c0.916 1.37 2.24 2.056 3.97 2.056 0.752 0 1.444-0.135 2.074-0.405 0.63-0.271 1.102-0.625 1.415-1.065 0.313-0.438 0.533-0.96 0.658-1.563 0.078-0.392 0.118-1.077 0.118-2.057v-7.676h-2.11v7.598c0 0.862-0.082 1.507-0.246 1.934-0.165 0.427-0.456 0.769-0.875 1.023-0.419 0.256-0.911 0.383-1.474 0.383-0.9 0-1.677-0.286-2.331-0.859-0.653-0.572-0.98-1.658-0.98-3.257v-6.822z"/><path d="m105.06-19.739h6.969c-0.094 1.052-0.361 1.842-0.799 2.368-0.674 0.817-1.548 1.225-2.621 1.225-0.972 0-1.788-0.326-2.45-0.978-0.662-0.651-1.029-1.523-1.099-2.615m6.945-3.407 2.188-0.281c-0.345-1.277-0.984-2.268-1.915-2.973-0.932-0.705-2.122-1.058-3.571-1.058-1.825 0-3.272 0.562-4.34 1.687-1.07 1.124-1.604 2.701-1.604 4.731 0 2.1 0.54 3.729 1.621 4.889s2.483 1.74 4.205 1.74c1.668 0 3.031-0.568 4.088-1.704s1.586-2.735 1.586-4.794c0-0.126-4e-3 -0.315-0.012-0.565h-9.316c0.078-1.373 0.467-2.425 1.165-3.155 0.697-0.729 1.568-1.095 2.611-1.095 0.777 0 1.439 0.205 1.989 0.616 0.548 0.41 0.984 1.064 1.305 1.962"/><path d="m118.26-20.948c0-1.6 0.337-2.795 1.01-3.588 0.674-0.791 1.469-1.188 2.385-1.188 0.924 0 1.709 0.378 2.355 1.135s0.969 1.911 0.969 3.464c0 1.71-0.329 2.964-0.987 3.765-0.657 0.798-1.468 1.199-2.431 1.199-0.94 0-1.724-0.385-2.355-1.152-0.63-0.77-0.946-1.981-0.946-3.635m6.688-6.229v1.571c-0.791-1.235-1.955-1.852-3.49-1.852-0.995 0-1.91 0.274-2.744 0.822-0.834 0.549-1.48 1.315-1.938 2.299-0.458 0.983-0.688 2.113-0.688 3.391 0 1.246 0.208 2.376 0.624 3.39 0.415 1.015 1.037 1.793 1.868 2.334 0.83 0.54 1.758 0.811 2.784 0.811 0.752 0 1.422-0.158 2.01-0.476 0.587-0.317 1.065-0.73 1.433-1.239v6.184h2.11v-17.235z"/><path d="m144.88-20.911c-0.767-0.314-1.918-0.58-3.451-0.799-0.869-0.126-1.484-0.268-1.844-0.424s-0.637-0.386-0.833-0.687c-0.196-0.302-0.294-0.637-0.294-1.006 0-0.565 0.213-1.034 0.639-1.41 0.426-0.377 1.049-0.565 1.869-0.565 0.813 0 1.535 0.178 2.168 0.535s1.098 0.844 1.395 1.463c0.226 0.479 0.34 1.184 0.34 2.117zm0.172-4.719c-0.786-0.668-1.541-1.141-2.263-1.415-0.723-0.275-1.499-0.413-2.327-0.413-1.367 0-2.418 0.335-3.152 1.005s-1.102 1.526-1.102 2.567c0 0.612 0.139 1.17 0.416 1.675 0.278 0.506 0.641 0.911 1.09 1.217 0.45 0.306 0.955 0.536 1.518 0.693 0.414 0.11 1.039 0.216 1.875 0.318 1.703 0.203 2.957 0.446 3.762 0.728 7e-3 0.29 0.011 0.475 0.011 0.553 0 0.863-0.199 1.471-0.598 1.823-0.539 0.479-1.341 0.718-2.404 0.718-0.992 0-1.725-0.175-2.198-0.524-0.474-0.348-0.823-0.965-1.05-1.851l-2.062 0.281c0.188 0.886 0.497 1.601 0.928 2.146 0.43 0.544 1.052 0.963 1.867 1.256 0.814 0.295 1.758 0.442 2.831 0.442 1.064 0 1.929-0.125 2.596-0.376 0.665-0.251 1.154-0.567 1.467-0.946 0.314-0.38 0.533-0.861 0.658-1.44 0.071-0.361 0.106-1.012 0.106-1.951v-2.822c0-1.967 0.045-3.211 0.136-3.733 0.09-0.52 0.268-1.019 0.536-1.498h-2.203c-0.227 0.442-0.373 0.957-0.438 1.547"/><path d="m150.31-27.177v12.485h1.89v-1.775c0.916 1.37 2.24 2.056 3.97 2.056 0.752 0 1.444-0.135 2.074-0.405 0.631-0.271 1.102-0.625 1.415-1.065 0.313-0.438 0.533-0.96 0.658-1.563 0.078-0.392 0.118-1.077 0.118-2.057v-7.676h-2.11v7.598c0 0.862-0.082 1.507-0.246 1.934-0.165 0.427-0.456 0.769-0.875 1.023-0.419 0.256-0.911 0.383-1.474 0.383-0.9 0-1.677-0.286-2.331-0.859-0.653-0.572-0.98-1.658-0.98-3.257v-6.822z"/><path d="m165.08-20.948c0-1.6 0.336-2.795 1.009-3.588 0.674-0.791 1.469-1.188 2.385-1.188 0.924 0 1.709 0.378 2.356 1.135 0.645 0.757 0.968 1.911 0.968 3.464 0 1.71-0.329 2.964-0.986 3.765-0.658 0.798-1.469 1.199-2.432 1.199-0.94 0-1.724-0.385-2.355-1.152-0.63-0.77-0.945-1.981-0.945-3.635m6.687-6.229v1.571c-0.791-1.235-1.955-1.852-3.49-1.852-0.994 0-1.909 0.274-2.743 0.822-0.834 0.549-1.481 1.315-1.939 2.299-0.458 0.983-0.687 2.113-0.687 3.391 0 1.246 0.207 2.376 0.623 3.39 0.415 1.015 1.037 1.793 1.868 2.334 0.83 0.54 1.758 0.811 2.785 0.811 0.752 0 1.421-0.158 2.009-0.476 0.587-0.317 1.065-0.73 1.433-1.239v6.184h2.11v-17.235z"/><path d="m183.72-27.177v12.485h1.89v-1.895c0.487 0.886 0.937 1.471 1.349 1.752 0.413 0.283 0.867 0.424 1.362 0.424 0.715 0 1.441-0.228 2.18-0.682l-0.74-1.957c-0.516 0.301-1.033 0.451-1.549 0.451-0.461 0-0.876-0.138-1.243-0.417-0.368-0.278-0.63-0.664-0.787-1.158-0.235-0.752-0.353-1.575-0.353-2.468v-6.535z"/><path d="m193.34-19.739h6.968c-0.094 1.052-0.36 1.842-0.799 2.368-0.674 0.817-1.547 1.225-2.62 1.225-0.972 0-1.789-0.326-2.451-0.978-0.662-0.651-1.028-1.523-1.098-2.615m6.945-3.407 2.187-0.281c-0.345-1.277-0.982-2.268-1.914-2.973-0.933-0.705-2.123-1.058-3.571-1.058-1.825 0-3.272 0.562-4.341 1.687-1.068 1.124-1.603 2.701-1.603 4.731 0 2.1 0.54 3.729 1.621 4.889s2.482 1.74 4.206 1.74c1.667 0 3.03-0.568 4.087-1.704s1.586-2.735 1.586-4.794c0-0.126-4e-3 -0.315-0.012-0.565h-9.316c0.078-1.373 0.466-2.425 1.164-3.155 0.699-0.729 1.569-1.095 2.612-1.095 0.776 0 1.439 0.205 1.988 0.616 0.549 0.41 0.984 1.064 1.306 1.962"/><path d="m205.1-9.942h2.109v-17.234h-2.109z"/><path d="m212.07-19.739h6.969c-0.094 1.052-0.361 1.842-0.799 2.368-0.674 0.817-1.547 1.225-2.62 1.225-0.972 0-1.789-0.326-2.451-0.978-0.662-0.651-1.028-1.523-1.099-2.615m6.946-3.407 2.187-0.281c-0.345-1.277-0.983-2.268-1.915-2.973s-2.122-1.058-3.571-1.058c-1.824 0-3.271 0.562-4.341 1.687-1.068 1.124-1.603 2.701-1.603 4.731 0 2.1 0.541 3.729 1.622 4.889 1.08 1.16 2.482 1.74 4.205 1.74 1.668 0 3.03-0.568 4.088-1.704 1.057-1.136 1.585-2.735 1.585-4.794 0-0.126-3e-3 -0.315-0.011-0.565h-9.317c0.079-1.373 0.467-2.425 1.165-3.155 0.698-0.729 1.568-1.095 2.612-1.095 0.776 0 1.439 0.205 1.987 0.616 0.549 0.41 0.985 1.064 1.307 1.962"/><path d="m231.83-20.911c-0.767-0.314-1.918-0.58-3.452-0.799-0.869-0.126-1.483-0.268-1.843-0.424-0.361-0.156-0.638-0.386-0.834-0.687-0.196-0.302-0.293-0.637-0.293-1.006 0-0.565 0.213-1.034 0.638-1.41 0.426-0.377 1.049-0.565 1.87-0.565 0.812 0 1.535 0.178 2.168 0.535 0.632 0.357 1.097 0.844 1.394 1.463 0.227 0.479 0.34 1.184 0.34 2.117zm0.172-4.719c-0.787-0.668-1.541-1.141-2.264-1.415-0.723-0.275-1.498-0.413-2.326-0.413-1.367 0-2.418 0.335-3.153 1.005-0.734 0.67-1.101 1.526-1.101 2.567 0 0.612 0.138 1.17 0.416 1.675 0.277 0.506 0.64 0.911 1.09 1.217 0.449 0.306 0.955 0.536 1.517 0.693 0.414 0.11 1.039 0.216 1.875 0.318 1.703 0.203 2.957 0.446 3.762 0.728 8e-3 0.29 0.012 0.475 0.012 0.553 0 0.863-0.2 1.471-0.598 1.823-0.54 0.479-1.341 0.718-2.404 0.718-0.993 0-1.726-0.175-2.199-0.524-0.473-0.348-0.823-0.965-1.049-1.851l-2.063 0.281c0.188 0.886 0.497 1.601 0.928 2.146 0.431 0.544 1.053 0.963 1.867 1.256 0.815 0.295 1.758 0.442 2.831 0.442 1.065 0 1.93-0.125 2.596-0.376 0.665-0.251 1.155-0.567 1.468-0.946 0.313-0.38 0.532-0.861 0.658-1.44 0.07-0.361 0.105-1.012 0.105-1.951v-2.822c0-1.967 0.045-3.211 0.136-3.733 0.09-0.52 0.269-1.019 0.536-1.498h-2.203c-0.227 0.442-0.373 0.957-0.437 1.547"/><path d="m236.39-23.442 2.093 0.328c0.118-0.842 0.446-1.489 0.983-1.937 0.538-0.448 1.289-0.673 2.254-0.673 0.974 0 1.695 0.199 2.166 0.595 0.471 0.397 0.707 0.861 0.707 1.396 0 0.479-0.207 0.855-0.621 1.13-0.289 0.189-1.01 0.428-2.163 0.719-1.554 0.392-2.631 0.731-3.23 1.016-0.601 0.286-1.056 0.681-1.366 1.187-0.309 0.505-0.464 1.063-0.464 1.674 0 0.557 0.127 1.071 0.382 1.545 0.255 0.475 0.602 0.868 1.04 1.182 0.329 0.242 0.779 0.448 1.347 0.616 0.568 0.169 1.178 0.253 1.828 0.253 0.98 0 1.84-0.141 2.581-0.423 0.74-0.282 1.287-0.664 1.64-1.145 0.352-0.482 0.596-1.125 0.729-1.932l-2.063-0.281c-0.094 0.642-0.366 1.144-0.818 1.505-0.451 0.361-1.088 0.541-1.912 0.541-0.973 0-1.668-0.161-2.084-0.483-0.416-0.321-0.623-0.698-0.623-1.13 0-0.275 0.086-0.523 0.259-0.742 0.172-0.228 0.443-0.417 0.812-0.566 0.212-0.079 0.836-0.259 1.871-0.541 1.499-0.401 2.543-0.728 3.133-0.982 0.59-0.255 1.053-0.625 1.389-1.11 0.336-0.487 0.505-1.089 0.505-1.81 0-0.705-0.206-1.369-0.618-1.992-0.412-0.622-1.006-1.104-1.782-1.445-0.777-0.341-1.655-0.511-2.635-0.511-1.623 0-2.86 0.338-3.711 1.013-0.852 0.674-1.395 1.675-1.629 3.003"/><path d="m250.86-19.739h6.969c-0.094 1.052-0.361 1.842-0.799 2.368-0.674 0.817-1.548 1.225-2.621 1.225-0.972 0-1.788-0.326-2.451-0.978-0.662-0.651-1.028-1.523-1.098-2.615m6.945-3.407 2.188-0.281c-0.345-1.277-0.984-2.268-1.915-2.973-0.932-0.705-2.122-1.058-3.572-1.058-1.824 0-3.271 0.562-4.34 1.687-1.069 1.124-1.603 2.701-1.603 4.731 0 2.1 0.54 3.729 1.621 4.889 1.08 1.16 2.482 1.74 4.205 1.74 1.668 0 3.031-0.568 4.088-1.704s1.586-2.735 1.586-4.794c0-0.126-4e-3 -0.315-0.012-0.565h-9.316c0.078-1.373 0.467-2.425 1.164-3.155 0.698-0.729 1.569-1.095 2.612-1.095 0.777 0 1.439 0.205 1.988 0.616 0.549 0.41 0.984 1.064 1.306 1.962"/><path d="m264.05-20.948c0-1.6 0.337-2.795 1.01-3.588 0.674-0.791 1.469-1.188 2.385-1.188 0.924 0 1.709 0.378 2.355 1.135s0.969 1.911 0.969 3.464c0 1.71-0.329 2.964-0.987 3.765-0.658 0.798-1.468 1.199-2.431 1.199-0.94 0-1.725-0.385-2.355-1.152-0.63-0.77-0.946-1.981-0.946-3.635m6.688-6.229v1.571c-0.791-1.235-1.954-1.852-3.49-1.852-0.995 0-1.91 0.274-2.744 0.822-0.834 0.549-1.48 1.315-1.938 2.299-0.458 0.983-0.688 2.113-0.688 3.391 0 1.246 0.208 2.376 0.623 3.39 0.415 1.015 1.038 1.793 1.869 2.334 0.83 0.54 1.757 0.811 2.785 0.811 0.752 0 1.422-0.158 2.009-0.476 0.586-0.317 1.065-0.73 1.433-1.239v6.184h2.109v-17.235z"/><path d="m282.73-14.692h2.109v-12.484h-2.109zm0 4.75h2.109v-2.438h-2.109z"/><path d="m288.07-27.177v12.485h1.89v-1.775c0.916 1.37 2.24 2.056 3.971 2.056 0.751 0 1.442-0.135 2.073-0.405 0.63-0.271 1.102-0.625 1.415-1.065 0.314-0.438 0.533-0.96 0.659-1.563 0.078-0.392 0.117-1.077 0.117-2.057v-7.676h-2.11v7.598c0 0.862-0.082 1.507-0.247 1.934-0.164 0.427-0.455 0.769-0.874 1.023-0.419 0.256-0.91 0.383-1.473 0.383-0.901 0-1.678-0.286-2.331-0.859-0.654-0.572-0.981-1.658-0.981-3.257v-6.822z"/><path d="m310.04-21.007c0-1.607 0.326-2.796 0.975-3.564 0.649-0.769 1.436-1.153 2.359-1.153 0.939 0 1.744 0.399 2.413 1.194 0.668 0.797 1.003 2.029 1.003 3.699 0 1.592-0.327 2.783-0.98 3.576-0.653 0.791-1.435 1.188-2.342 1.188-0.899 0-1.696-0.422-2.388-1.265-0.693-0.843-1.04-2.067-1.04-3.675m-1.906-10.951v17.266h1.922v-1.622c0.454 0.633 0.968 1.11 1.539 1.427 0.571 0.318 1.265 0.476 2.08 0.476 1.066 0 2.005-0.275 2.82-0.822 0.814-0.549 1.429-1.324 1.844-2.323s0.623-2.093 0.623-3.285c0-1.277-0.229-2.427-0.687-3.449-0.458-1.023-1.124-1.807-1.997-2.352-0.874-0.544-1.793-0.816-2.756-0.816-0.705 0-1.338 0.148-1.898 0.445s-1.02 0.672-1.38 1.125v-6.07z"/><path d="m329.67-27.177v1.841c-0.968-1.415-2.285-2.122-3.949-2.122-0.734 0-1.42 0.141-2.057 0.423-0.636 0.282-1.109 0.637-1.418 1.064-0.308 0.427-0.525 0.95-0.65 1.57-0.086 0.415-0.129 1.073-0.129 1.974v7.735h2.11v-6.92c0-1.105 0.043-1.848 0.128-2.233 0.133-0.555 0.415-0.992 0.845-1.309 0.43-0.318 0.961-0.476 1.595-0.476 0.633 0 1.227 0.162 1.782 0.487 0.555 0.326 0.947 0.768 1.179 1.328 0.23 0.56 0.346 1.373 0.346 2.438v6.685h2.108v-12.485z"/><path d="m336.8-20.841c0-1.498 0.204-2.58 0.612-3.247 0.667-1.091 1.569-1.636 2.708-1.636 0.926 0 1.727 0.403 2.401 1.206 0.675 0.804 1.013 2.002 1.013 3.595 0 1.632-0.324 2.836-0.972 3.612-0.647 0.777-1.43 1.165-2.348 1.165-0.926 0-1.727-0.402-2.402-1.206-0.674-0.803-1.012-1.966-1.012-3.489m0.031-6.336h-1.953v17.235h2.109v-6.145c0.895 1.117 2.035 1.676 3.424 1.676 0.769 0 1.496-0.154 2.183-0.465 0.686-0.309 1.251-0.744 1.694-1.305 0.443-0.559 0.791-1.235 1.041-2.027 0.252-0.791 0.377-1.638 0.377-2.539 0-2.139-0.529-3.792-1.589-4.96-1.059-1.167-2.331-1.751-3.813-1.751-1.476 0-2.633 0.613-3.473 1.84z"/><path d="m348.23-9.942h2.109v-17.234h-2.109z"/><path d="m353.62-14.692h2.109v-12.484h-2.109zm0 4.75h2.109v-2.438h-2.109z"/><path d="m367.11-22.599 2.079-0.281c-0.228-1.432-0.81-2.553-1.747-3.363-0.936-0.811-2.087-1.215-3.45-1.215-1.709 0-3.082 0.559-4.121 1.675s-1.557 2.717-1.557 4.802c0 1.347 0.223 2.527 0.669 3.537 0.447 1.011 1.126 1.769 2.039 2.275 0.914 0.505 1.907 0.758 2.98 0.758 1.355 0 2.465-0.344 3.326-1.029 0.861-0.687 1.414-1.662 1.657-2.924l-2.062-0.313c-0.196 0.84-0.542 1.472-1.04 1.896-0.497 0.424-1.098 0.635-1.803 0.635-1.065 0-1.931-0.382-2.596-1.147-0.666-0.765-0.999-1.975-0.999-3.63 0-1.679 0.322-2.898 0.965-3.659 0.644-0.761 1.483-1.142 2.519-1.142 0.831 0 1.525 0.256 2.082 0.767s0.91 1.297 1.059 2.358"/><path d="m379.07-20.948c0-1.6 0.337-2.795 1.01-3.588 0.674-0.791 1.469-1.188 2.385-1.188 0.924 0 1.709 0.378 2.355 1.135s0.969 1.911 0.969 3.464c0 1.71-0.329 2.964-0.986 3.765-0.659 0.798-1.469 1.199-2.432 1.199-0.939 0-1.725-0.385-2.355-1.152-0.63-0.77-0.946-1.981-0.946-3.635m6.688-6.229v1.571c-0.791-1.235-1.955-1.852-3.49-1.852-0.995 0-1.91 0.274-2.744 0.822-0.834 0.549-1.48 1.315-1.938 2.299-0.459 0.983-0.688 2.113-0.688 3.391 0 1.246 0.207 2.376 0.623 3.39 0.415 1.015 1.038 1.793 1.869 2.334 0.83 0.54 1.758 0.811 2.784 0.811 0.752 0 1.422-0.158 2.01-0.476 0.587-0.317 1.065-0.73 1.433-1.239v6.184h2.109v-17.235z"/><path d="m392.44-20.937c0-1.599 0.348-2.796 1.045-3.593 0.698-0.795 1.575-1.194 2.632-1.194 1.05 0 1.923 0.401 2.62 1.2 0.698 0.8 1.046 2.019 1.046 3.658 0 1.545-0.35 2.715-1.052 3.512-0.701 0.794-1.572 1.193-2.614 1.193-1.057 0-1.934-0.397-2.632-1.188-0.697-0.793-1.045-1.988-1.045-3.588m-2.172 2e-3c0 2.312 0.641 4.024 1.926 5.137 1.073 0.924 2.38 1.387 3.923 1.387 1.715 0 3.116-0.563 4.205-1.687 1.089-1.125 1.633-2.678 1.633-4.661 0-1.605-0.241-2.869-0.723-3.79-0.481-0.921-1.182-1.636-2.102-2.145s-1.924-0.764-3.013-0.764c-1.746 0-3.158 0.561-4.234 1.681-1.077 1.12-1.615 2.735-1.615 4.842"/><path d="m404.44-27.177v12.485h1.89v-1.747c0.392 0.609 0.911 1.1 1.561 1.471 0.649 0.371 1.387 0.557 2.217 0.557 0.922 0 1.679-0.192 2.27-0.574 0.59-0.384 1.007-0.919 1.249-1.607 0.988 1.454 2.275 2.181 3.859 2.181 1.24 0 2.193-0.343 2.86-1.028 0.667-0.687 1-1.743 1-3.168v-8.57h-2.11v7.868c0 0.847-0.068 1.456-0.206 1.83-0.136 0.372-0.385 0.671-0.746 0.899-0.361 0.227-0.785 0.341-1.27 0.341-0.879 0-1.609-0.292-2.189-0.876-0.58-0.585-0.87-1.52-0.87-2.806v-7.256h-2.109v8.115c0 0.941-0.172 1.647-0.517 2.117s-0.908 0.706-1.691 0.706c-0.595 0-1.145-0.157-1.651-0.471-0.504-0.313-0.871-0.772-1.097-1.376-0.227-0.603-0.341-1.474-0.341-2.61v-6.481z"/><path d="m432.44-20.911c-0.767-0.314-1.918-0.58-3.453-0.799-0.868-0.126-1.482-0.268-1.842-0.424-0.361-0.156-0.638-0.386-0.833-0.687-0.197-0.302-0.294-0.637-0.294-1.006 0-0.565 0.213-1.034 0.638-1.41 0.426-0.377 1.049-0.565 1.869-0.565 0.813 0 1.536 0.178 2.168 0.535 0.633 0.357 1.098 0.844 1.395 1.463 0.227 0.479 0.34 1.184 0.34 2.117zm0.171-4.719c-0.786-0.668-1.541-1.141-2.263-1.415-0.723-0.275-1.498-0.413-2.326-0.413-1.368 0-2.418 0.335-3.153 1.005-0.734 0.67-1.101 1.526-1.101 2.567 0 0.612 0.138 1.17 0.416 1.675 0.277 0.506 0.64 0.911 1.089 1.217 0.45 0.306 0.956 0.536 1.518 0.693 0.414 0.11 1.039 0.216 1.875 0.318 1.703 0.203 2.957 0.446 3.762 0.728 8e-3 0.29 0.012 0.475 0.012 0.553 0 0.863-0.2 1.471-0.599 1.823-0.539 0.479-1.34 0.718-2.403 0.718-0.994 0-1.726-0.175-2.199-0.524-0.473-0.348-0.823-0.965-1.049-1.851l-2.063 0.281c0.188 0.886 0.497 1.601 0.928 2.146 0.43 0.544 1.052 0.963 1.867 1.256 0.814 0.295 1.759 0.442 2.831 0.442 1.064 0 1.93-0.125 2.596-0.376 0.665-0.251 1.154-0.567 1.467-0.946 0.314-0.38 0.533-0.861 0.659-1.44 0.07-0.361 0.105-1.012 0.105-1.951v-2.822c0-1.967 0.045-3.211 0.136-3.733 0.09-0.52 0.268-1.019 0.536-1.498h-2.203c-0.228 0.442-0.373 0.957-0.438 1.547"/><path d="m437.86-14.692h2.109v-12.484h-2.109zm0 4.75h2.109v-2.438h-2.109z"/><path d="m443.21-27.177v12.485h1.891v-1.775c0.916 1.37 2.239 2.056 3.97 2.056 0.752 0 1.443-0.135 2.074-0.405 0.629-0.271 1.101-0.625 1.415-1.065 0.313-0.438 0.532-0.96 0.658-1.563 0.078-0.392 0.117-1.077 0.117-2.057v-7.676h-2.109v7.598c0 0.862-0.082 1.507-0.247 1.934s-0.457 0.769-0.875 1.023c-0.418 0.256-0.91 0.383-1.473 0.383-0.901 0-1.678-0.286-2.331-0.859-0.654-0.572-0.981-1.658-0.981-3.257v-6.822z"/><path d="m465.18-20.841c0-1.498 0.204-2.58 0.612-3.247 0.667-1.091 1.569-1.636 2.708-1.636 0.926 0 1.727 0.403 2.401 1.206 0.675 0.804 1.013 2.002 1.013 3.595 0 1.632-0.324 2.836-0.972 3.612-0.647 0.777-1.43 1.165-2.348 1.165-0.926 0-1.727-0.402-2.402-1.206-0.674-0.803-1.012-1.966-1.012-3.489m0.031-6.336h-1.953v17.235h2.109v-6.145c0.895 1.117 2.035 1.676 3.424 1.676 0.769 0 1.496-0.154 2.183-0.465 0.686-0.309 1.251-0.744 1.694-1.305 0.443-0.559 0.791-1.235 1.041-2.027 0.252-0.791 0.377-1.638 0.377-2.539 0-2.139-0.529-3.792-1.589-4.96-1.06-1.167-2.331-1.751-3.813-1.751-1.476 0-2.633 0.613-3.473 1.84z"/><path d="m476.56-31.979-0.235 1.99c0.461-0.125 0.864-0.188 1.208-0.188 0.47 0 0.845 0.078 1.126 0.235s0.513 0.377 0.693 0.658c0.132 0.212 0.347 0.736 0.645 1.574 0.039 0.118 0.102 0.29 0.188 0.518l-4.75 12.5h2.28l2.602-7.198c0.338-0.912 0.64-1.872 0.908-2.879 0.244 0.941 0.535 1.873 0.873 2.797l2.665 7.28h2.114l-4.733-12.704c-0.51-1.369-0.906-2.31-1.188-2.827-0.376-0.695-0.807-1.205-1.293-1.53-0.486-0.324-1.066-0.486-1.74-0.486-0.407 0-0.862 0.086-1.363 0.26"/><path d="m495.74-27.177v17.235h11.625v-2.032h-9.344v-5.343h8.094v-2.032h-8.094v-7.828z"/><path d="m510.03-27.177v12.485h1.891v-1.895c0.487 0.886 0.936 1.471 1.349 1.752 0.413 0.283 0.866 0.424 1.362 0.424 0.715 0 1.441-0.228 2.179-0.682l-0.74-1.957c-0.515 0.301-1.032 0.451-1.549 0.451-0.461 0-0.875-0.138-1.243-0.417-0.367-0.278-0.63-0.664-0.786-1.158-0.236-0.752-0.353-1.575-0.353-2.468v-6.535z"/><path d="m519.66-19.739h6.969c-0.094 1.052-0.36 1.842-0.799 2.368-0.674 0.817-1.548 1.225-2.621 1.225-0.972 0-1.788-0.326-2.45-0.978-0.662-0.651-1.028-1.523-1.099-2.615m6.946-3.407 2.187-0.281c-0.345-1.277-0.983-2.268-1.915-2.973s-2.122-1.058-3.571-1.058c-1.824 0-3.272 0.562-4.34 1.687-1.069 1.124-1.604 2.701-1.604 4.731 0 2.1 0.54 3.729 1.621 4.889s2.483 1.74 4.206 1.74c1.668 0 3.031-0.568 4.087-1.704 1.057-1.136 1.586-2.735 1.586-4.794 0-0.126-4e-3 -0.315-0.011-0.565h-9.317c0.078-1.373 0.467-2.425 1.164-3.155 0.699-0.729 1.57-1.095 2.613-1.095 0.776 0 1.438 0.205 1.988 0.616 0.549 0.41 0.983 1.064 1.306 1.962"/><path d="m533.04-19.739h6.969c-0.095 1.052-0.36 1.842-0.799 2.368-0.674 0.817-1.548 1.225-2.621 1.225-0.972 0-1.788-0.326-2.45-0.978-0.662-0.651-1.029-1.523-1.099-2.615m6.945-3.407 2.188-0.281c-0.345-1.277-0.983-2.268-1.915-2.973s-2.122-1.058-3.57-1.058c-1.826 0-3.273 0.562-4.341 1.687-1.07 1.124-1.604 2.701-1.604 4.731 0 2.1 0.54 3.729 1.621 4.889s2.483 1.74 4.205 1.74c1.668 0 3.031-0.568 4.088-1.704 1.058-1.136 1.586-2.735 1.586-4.794 0-0.126-4e-3 -0.315-0.011-0.565h-9.317c0.078-1.373 0.467-2.425 1.165-3.155 0.697-0.729 1.569-1.095 2.612-1.095 0.776 0 1.439 0.205 1.988 0.616 0.549 0.41 0.984 1.064 1.305 1.962"/><path d="m544.34-21.646 2.156 0.188c0.102-0.864 0.338-1.574 0.709-2.128s0.948-1.002 1.73-1.344c0.781-0.341 1.661-0.512 2.637-0.512 0.868 0 1.634 0.129 2.298 0.388 0.664 0.26 1.158 0.616 1.484 1.068 0.324 0.451 0.486 0.944 0.486 1.476 0 0.541-0.156 1.013-0.468 1.417-0.311 0.404-0.828 0.742-1.549 1.017-0.462 0.18-1.484 0.461-3.066 0.842-1.583 0.38-2.692 0.739-3.328 1.077-0.824 0.431-1.438 0.967-1.842 1.607-0.404 0.639-0.606 1.356-0.606 2.149 0 0.871 0.247 1.685 0.741 2.442 0.493 0.757 1.215 1.332 2.163 1.725 0.948 0.392 2.003 0.588 3.163 0.588 1.278 0 2.404-0.205 3.381-0.616 0.976-0.411 1.726-1.015 2.252-1.813 0.525-0.798 0.807-1.701 0.846-2.711l-2.187-0.172c-0.118 1.087-0.515 1.908-1.192 2.464-0.678 0.556-1.68 0.833-3.003 0.833-1.38 0-2.384-0.253-3.015-0.759-0.631-0.507-0.946-1.116-0.946-1.83 0-0.62 0.223-1.13 0.67-1.53 0.438-0.401 1.585-0.811 3.437-1.23 1.853-0.42 3.124-0.786 3.814-1.099 1.002-0.462 1.743-1.048 2.221-1.757s0.717-1.526 0.717-2.449c0-0.917-0.263-1.781-0.787-2.591-0.525-0.812-1.277-1.442-2.26-1.892-0.982-0.45-2.089-0.676-3.317-0.676-1.558 0-2.864 0.228-3.916 0.682-1.053 0.454-1.879 1.138-2.478 2.051-0.598 0.912-0.914 1.944-0.945 3.095"/><path d="m566.06-27.177-6.666 17.235h2.472l4.478-12.516c0.36-1.003 0.662-1.943 0.905-2.82 0.267 0.939 0.576 1.88 0.929 2.82l4.657 12.516h2.331l-6.748-17.235z"/><path d="m585.26-20.427v2.031h7.297v-6.388c-1.12-0.893-2.277-1.565-3.468-2.014-1.191-0.451-2.413-0.676-3.666-0.676-1.694 0-3.231 0.363-4.613 1.088-1.384 0.725-2.428 1.774-3.133 3.146s-1.058 2.905-1.058 4.598c0 1.678 0.351 3.244 1.052 4.698 0.701 1.455 1.71 2.535 3.026 3.24 1.317 0.706 2.833 1.058 4.549 1.058 1.245 0 2.372-0.202 3.379-0.606s1.796-0.968 2.368-1.689c0.572-0.722 1.007-1.664 1.305-2.827l-2.058-0.563c-0.259 0.878-0.58 1.568-0.965 2.071-0.383 0.503-0.932 0.906-1.645 1.208-0.714 0.302-1.506 0.453-2.376 0.453-1.042 0-1.944-0.158-2.704-0.476-0.761-0.317-1.375-0.735-1.841-1.252s-0.829-1.085-1.088-1.704c-0.438-1.066-0.658-2.222-0.658-3.468 0-1.536 0.265-2.821 0.794-3.855 0.529-1.036 1.299-1.803 2.31-2.305 1.011-0.501 2.085-0.752 3.222-0.752 0.988 0 1.952 0.189 2.894 0.568 0.94 0.38 1.653 0.784 2.139 1.215v3.201z"/><path d="m596.24-24.771h2.406v-2.406h-2.406z"/><path d="m603.7-20.937c0-1.599 0.349-2.796 1.046-3.593 0.697-0.795 1.574-1.194 2.632-1.194 1.05 0 1.923 0.401 2.62 1.2 0.697 0.8 1.046 2.019 1.046 3.658 0 1.545-0.351 2.715-1.052 3.512-0.701 0.794-1.572 1.193-2.614 1.193-1.058 0-1.935-0.397-2.632-1.188-0.697-0.793-1.046-1.988-1.046-3.588m-2.172 2e-3c0 2.312 0.642 4.024 1.927 5.137 1.072 0.924 2.38 1.387 3.923 1.387 1.715 0 3.116-0.563 4.205-1.687 1.089-1.125 1.633-2.678 1.633-4.661 0-1.605-0.242-2.869-0.723-3.79s-1.183-1.636-2.102-2.145c-0.92-0.509-1.924-0.764-3.013-0.764-1.746 0-3.158 0.561-4.235 1.681s-1.615 2.735-1.615 4.842"/><path d="m615.68-27.177v12.485h1.89v-1.895c0.488 0.886 0.937 1.471 1.35 1.752 0.412 0.283 0.865 0.424 1.361 0.424 0.715 0 1.442-0.228 2.18-0.682l-0.74-1.957c-0.516 0.301-1.032 0.451-1.549 0.451-0.461 0-0.875-0.138-1.243-0.417-0.367-0.278-0.63-0.664-0.786-1.158-0.237-0.752-0.354-1.575-0.354-2.468v-6.535z"/><path d="m625.08-20.712c0-1.639 0.325-2.834 0.975-3.586 0.649-0.753 1.463-1.129 2.441-1.129 0.971 0 1.784 0.374 2.442 1.123 0.658 0.748 0.986 1.922 0.986 3.522 0 1.528-0.338 2.68-1.016 3.457-0.676 0.775-1.492 1.164-2.447 1.164-0.939 0-1.737-0.383-2.395-1.147-0.657-0.764-0.986-1.899-0.986-3.404m-1.75-7.496 2.063-0.313c0.086-0.632 0.325-1.093 0.715-1.382 0.525-0.391 1.241-0.586 2.148-0.586 0.977 0 1.732 0.196 2.265 0.588 0.531 0.392 0.891 0.941 1.079 1.647 0.109 0.432 0.16 1.337 0.152 2.718-0.924-1.094-2.074-1.641-3.453-1.641-1.715 0-3.042 0.619-3.982 1.858-0.939 1.238-1.409 2.722-1.409 4.455 0 1.191 0.216 2.29 0.647 3.297 0.43 1.006 1.055 1.785 1.874 2.333 0.818 0.548 1.78 0.823 2.884 0.823 1.472 0 2.687-0.594 3.642-1.781v1.5h1.953v-10.789c0-1.944-0.197-3.321-0.593-4.131-0.396-0.811-1.023-1.451-1.88-1.922-0.859-0.47-1.914-0.705-3.168-0.705-1.489 0-2.692 0.335-3.609 1.005s-1.359 1.678-1.328 3.026"/></g><path d="m465.52 150.56h24.368c-17.459 17.795-34.917 35.588-52.378 53.382-1.703 16.231-3.403 32.459-5.103 48.69-1.831-12.629-3.663-25.258-5.491-37.891 0.044-1.939 0.091-3.881 0.138-5.822 0.233-9.727 3.437-18.014 9.815-25.355 9.55-11 19.101-22.002 28.651-33.004m52.777 222.83c-49.277-15.614-97.331-33.694-138.74-30.279-59.443-16.525-105.71-23.437-89.393 4.103 19.304 5.306 36.312 11.944 51.995 19.786-53.389-13.44-105.27-10.38-97.958 10.735-13.779-15.793-1.342-24.096 29.918-27.025-49.222-4.181-98.442-8.363-147.66-12.544 51.633 1.445 103.27 2.897 154.9 4.341-12.546-28.487 34.185-22.39 98.926-5.79 34.308-8.467 86.647 14.968 138.01 36.673m37.1 168.65c-4.923 0-9.221-2.108-11.511-5.244-5.853-0.22-11.709-0.443-17.562-0.666 5.278-1.75 10.559-3.5 15.837-5.246 0.472-5.429 6.218-9.715 13.236-9.715 6.224 0 11.445 3.369 12.88 7.911 3.469-0.1 6.938-0.207 10.406-0.311-3.484 1.832-6.968 3.667-10.453 5.498-1.495 4.474-6.672 7.773-12.833 7.773m7.709-7.949c-0.694-1.552-2.573-2.664-4.784-2.664-2.8 0-5.067 1.784-5.067 3.987 0 1.046 0.514 1.998 1.356 2.711-4.231-0.311-7.543-3.113-7.543-6.519 0-3.619 3.73-6.55 8.329-6.55 4.603 0 8.328 2.931 8.328 6.55 0 0.88-0.219 1.719-0.619 2.485m-0.769-65.271c24.448-16.488 31.847-37.398 25.576-74.797 6.789 6.828 20.021 28.031 5.307 55.495 16.729-7.562 24.771-15.844 32.814-27.505-8.9 26.861-25.178 46.989-63.697 46.807m-272.41-67.401c33.778 10.053 67.557 20.107 101.34 30.16 32.495 11.341 64.986 22.68 97.477 34.021-66.27-21.394-132.54-42.789-198.81-64.181m50.186-7.719c23.809 7.559 47.609 15.118 71.417 22.676 33.459 12.064 66.917 24.132 100.38 36.196-57.266-19.626-114.53-39.249-171.79-58.872m26.542-30.886c25.573 8.687 51.15 17.371 76.726 26.06l89.273 34.26c-55.334-20.106-110.67-40.213-166-60.32m-328.48-19.707c61.581 13.424 123.16 26.849 184.74 40.269-16.538 0.598-28.287 4.468-32.601 13.428 93.165 28.997 186.33 57.995 279.5 86.992 15.658 4.87 31.282 2.143 44.357-7.753 2.124-1.609 4.247-3.214 6.368-4.819-6.654 7.904-10.694 16.116-11.879 24.662-2.45 13.44-38.227 16.242-71.592 19.817 9.969 23.418 27.458 40.119 73.509 31.322 41.756 16.934 79.186 19.89 104.2-17.26 52.73-33.729 43.12-81.205 8.31-134.24-22.733-20.178-24.477-56.037-47.21-76.213-28.403-25.209-78.677-33.785-106.21-59.947-10.519-9.992-9.519-26.588-10.55-42.019-0.571-8.557 2.338-16.147 8.477-22.135 7.64-7.447 15.281-14.899 22.922-22.348 12.314-12.01 26.191-18.947 43.194-21.592 20.417-3.173 40.835-6.349 61.249-9.525h-182.18c10.015 3.195 20.031 6.389 30.043 9.588-12.572 14.062-25.139 28.125-37.712 42.189-11.014 10.782-16 24.577-15.167 41.282 8.325 6.584 16.657 13.17 24.982 19.752-7.961-3.299-15.919-6.596-23.88-9.893-65.959 0.631-98.887 12.6-78.626 42.83 9.599 6.795 19.196 13.59 28.796 20.389-15.625-7.119-31.25-14.239-46.873-21.358-50.141 0.198-100.92 22.973-151.32 32.291-86.67-6.994-121.58-2.074-135.52 7.671 23.226 4.688 46.453 9.375 69.677 14.062-12.997 0.855-25.994 1.706-38.992 2.558" fill="#211d1d" fill-rule="evenodd"/></g></svg>
